<?xml version="1.0" encoding="UTF-8"?>
<svg id="Layer_1" data-name="Layer 1" xmlns="http://www.w3.org/2000/svg" xmlns:xlink="http://www.w3.org/1999/xlink" viewBox="0 0 123.52 30.8">
  <defs>
    <style>
      .cls-1 {
        fill: url(#linear-gradient);
      }

      .cls-1, .cls-2, .cls-3, .cls-4, .cls-5 {
        stroke-width: 0px;
      }

      .cls-6 {
        letter-spacing: -.05em;
      }

      .cls-6, .cls-7 {
        font-family: Arial-BoldMT, Arial;
        font-weight: 700;
      }

      .cls-6, .cls-7, .cls-8, .cls-9, .cls-10, .cls-11 {
        isolation: isolate;
      }

      .cls-6, .cls-7, .cls-10, .cls-11 {
        fill: #083153;
        font-size: 6.42px;
      }

      .cls-2 {
        fill: #3281f7;
      }

      .cls-12 {
        fill: none;
        stroke: #f90000;
        stroke-miterlimit: 10;
        stroke-width: .75px;
      }

      .cls-3 {
        fill: url(#linear-gradient-2);
      }

      .cls-9 {
        font-size: 17.63px;
        letter-spacing: -.08em;
      }

      .cls-9, .cls-10, .cls-11 {
        font-family: ArialMT, Arial;
      }

      .cls-9, .cls-4 {
        fill: #153150;
      }

      .cls-10 {
        letter-spacing: 0em;
      }

      .cls-5 {
        fill: #fff;
      }
    </style>
    <linearGradient id="linear-gradient" x1="3.31" y1="26.5" x2="18.16" y2="8.61" gradientTransform="translate(0 32.8) scale(1 -1)" gradientUnits="userSpaceOnUse">
      <stop offset="0" stop-color="#df2d12"/>
      <stop offset=".18" stop-color="#df2d12"/>
      <stop offset=".41" stop-color="#bb2314"/>
      <stop offset=".68" stop-color="#981a17"/>
      <stop offset=".83" stop-color="#8b1719"/>
      <stop offset=".99" stop-color="#8b1719"/>
    </linearGradient>
    <linearGradient id="linear-gradient-2" x1="1.29" y1="16.8" x2="29.61" y2="16.8" gradientTransform="translate(0 32.8) scale(1 -1)" gradientUnits="userSpaceOnUse">
      <stop offset="0" stop-color="#b11b25"/>
      <stop offset="1" stop-color="#df2d12"/>
    </linearGradient>
  </defs>
  <g class="cls-8">
    <text class="cls-10" transform="translate(35.63 26)"><tspan x="0" y="0">F</tspan></text>
    <text class="cls-11" transform="translate(38.99 26)"><tspan x="0" y="0">ormerly </tspan></text>
    <text class="cls-6" transform="translate(63.29 26)"><tspan x="0" y="0">A</tspan></text>
    <text class="cls-7" transform="translate(67.85 26)"><tspan x="0" y="0">egon Li</tspan></text>
    <text class="cls-7" transform="translate(90.11 26)"><tspan x="0" y="0">f</tspan></text>
    <text class="cls-7" transform="translate(92.77 26)"><tspan x="0" y="0">e</tspan></text>
  </g>
  <g class="cls-8">
    <text class="cls-9" transform="translate(34.3 15.13)"><tspan x="0" y="0">Bandhan </tspan></text>
    <text class="cls-9" transform="translate(99.33 15.13)"><tspan x="0" y="0">Life</tspan></text>
  </g>
  <path class="cls-5" d="M13.26,2.97c-1.55,2.14-2.53,4.94-2.52,8.29.01,3.69,1.59,6.76,4.06,8.79,2.46-2.03,4.09-5.05,4.04-8.73-.03-2.75-.29-5.33-2.66-8.6-.38-.52-1.04-1.2-1.38-1.53-.04,0-.93.93-1.53,1.76"/>
  <path class="cls-1" d="M14.37,1.2C6.4,1.44,0,7.95,0,15.98s6.63,14.8,14.8,14.8c2.71,0,10.06-1.13,13.52-8.78-1.49.61-3.11.94-4.81.94-7.05,0-12.75-4.57-12.76-11.62,0-3.62,1.09-6.54,2.76-8.69.34-.44.9-1.05,1.29-1.44-.02,0-.41,0-.43,0"/>
  <path class="cls-3" d="M16.12,2.63c2.22,2.96,2.73,5.79,2.73,8.71,0,7.05-5.71,11.62-12.76,11.62-1.7,0-3.32-.34-4.81-.94,3.53,7.86,10.81,8.78,13.52,8.78,8.17,0,14.8-6.63,14.8-14.81S23.21,1.45,15.23,1.21c-.02,0-.42-.02-.43-.02.38.39.99,1,1.32,1.44"/>
  <path class="cls-2" d="M23.03,7.59c.3,2.28-.09,4.83-1.48,7.4-1.53,2.82-4,4.53-6.74,5.07-1.05-2.57-1.05-5.55.5-8.35,1.16-2.1,2.42-3.97,5.59-5.5.51-.25,1.29-.49,1.69-.6.03.02.33,1.09.45,1.98"/>
  <path class="cls-4" d="M6.58,7.59c-.3,2.28.09,4.83,1.48,7.4,1.53,2.82,4,4.53,6.74,5.07,1.05-2.57,1.05-5.55-.5-8.35-1.16-2.1-2.42-3.97-5.59-5.5-.51-.25-1.29-.49-1.69-.6-.03.02-.33,1.09-.45,1.98"/>
  <line class="cls-12" x1="35.67" y1="18.59" x2="96.37" y2="18.59"/>
</svg>