<svg xmlns="http://www.w3.org/2000/svg" viewBox="0 0 60 60" style="enable-background:new 0 0 60 60" xml:space="preserve"><path d="M59.9 25.7c-.3-.4-.6-.8-1.1-.8H55C52.6 12.1 41.4 2.3 27.7 2.3 12.4 2.3 0 14.7 0 30s12.4 27.7 27.7 27.7c9.8 0 19-5.4 24-13.9.6-1.1.3-2.8-.9-3.4-1.1-.6-2.8-.3-3.4.9-4.1 7-11.6 11.4-19.7 11.4C15.2 52.6 5 42.4 5 29.9S15.2 7.2 27.7 7.2c10.7 0 19.8 7.5 22.1 17.6h-3.7c-.5 0-.9.3-1.1.8-.3.4-.1 1 .1 1.4l6.3 7.5c.3.3.6.5 1 .5s.8-.1 1-.5l6.3-7.5c.3-.3.4-.8.2-1.3z" style="fill:#5f2ee5"/><path d="M27.7 8.6c-1.4 0-2.6 1.1-2.6 2.6v15.3c-1.1.8-1.9 2.2-1.9 3.6 0 2.4 2 4.5 4.5 4.5.6 0 1.3-.1 1.9-.4l8.8 5.1c.4.3.8.4 1.3.4.9 0 1.7-.5 2.2-1.3.6-1.1.3-2.8-.9-3.4l-8.8-5.1c-.1-1.3-.8-2.6-1.8-3.2V11.2c-.1-1.5-1.3-2.6-2.7-2.6zm0 23.3c-1 0-1.9-.9-1.9-1.9s.9-1.9 1.9-1.9c1 0 1.9.9 1.9 1.9s-.9 1.9-1.9 1.9z" style="fill:#009688"/></svg>