<svg version="1.1" id="_x33_0" xmlns="http://www.w3.org/2000/svg" x="0" y="0" viewBox="0 0 60 60" style="enable-background:new 0 0 60 60" xml:space="preserve"><style>.st0{fill:#5f2ee5}.st1{fill:#009688}</style><path class="st0" d="M23.3 42.7c2.1 0 3.9-1.7 3.9-3.9h-1.9c0 1.1-.9 1.9-1.9 1.9-1.1 0-1.9-.9-1.9-1.9h-1.9c-.2 2.1 1.5 3.9 3.7 3.9zM36.7 42.7c2.1 0 3.9-1.7 3.9-3.9h-1.9c0 1.1-.9 1.9-1.9 1.9-1.1 0-1.9-.9-1.9-1.9H33c-.1 2.1 1.6 3.9 3.7 3.9zM25.2 53.3H31c3.2 0 5.8-2.6 5.8-5.8h-1.9c0 2.1-1.7 3.9-3.9 3.9h-5.8v1.9z"/><path class="st0" d="M47.3 36.9h-1V35c0-1.1-.9-1.9-1.9-1.9h-.3c.2-.6.3-1.3.3-1.9 0-3.4-2.5-6.2-5.8-6.7v-.1c0-2.7-2.2-4.8-4.8-4.8-1.1 0-2.1.4-2.9 1v-2.9h3.9c4.2 0 7.7-3.5 7.7-7.7V4.1h-5.8c-.6 0-1.2.1-1.8.2-.3-.4-.7-.8-1.1-1.2L30 0l-3.8 3.2c-.4.4-.8.7-1.1 1.2-.6-.1-1.2-.2-1.8-.2h-5.8V10c0 4.2 3.5 7.7 7.7 7.7H29v2.9c-.8-.6-1.8-1-2.9-1-2.7 0-4.8 2.2-4.8 4.8v.1c-3.3.5-5.8 3.3-5.8 6.7 0 .7.1 1.3.3 1.9h-.3c-1.1 0-1.9.9-1.9 1.9v1.9h-1c-2.7 0-4.8 2.2-4.8 4.8 0 2.7 2.2 4.8 4.8 4.8h1v1c0 6.9 5.6 12.5 12.5 12.5h7.7c6.9 0 12.5-5.6 12.5-12.5v-1h1c2.7 0 4.8-2.2 4.8-4.8.1-2.7-2.1-4.8-4.8-4.8zM33.9 21.5c1.6 0 2.9 1.3 2.9 2.9s-1.3 2.9-2.9 2.9c-.2 0-.5 0-.7-.1l-.6 1.8c.4.1.8.2 1.2.2 1.9 0 3.6-1.2 4.4-2.8 2.4.3 4.3 2.3 4.3 4.8 0 .7-.1 1.3-.4 1.9h-1.5c0-2.1-1.7-3.9-3.9-3.9v1.9c1.1 0 1.9.9 1.9 1.9H31v-8.7c0-1.5 1.3-2.8 2.9-2.8zm2.8-15.4h3.9V10c0 3.2-2.6 5.8-5.8 5.8h-1.1c1.3-1.1 2.3-2.5 2.8-4.1l2.9-2.9L38 7.3l-1.3 1.3c-.1-.9-.3-1.7-.7-2.5h.7zm-9.3-1.4L30 2.5l2.6 2.2c1.4 1.2 2.2 2.9 2.2 4.7 0 2.3-1.3 4.4-3.4 5.5l-.4.2v-3.8l2.6-2.6-1.4-1.4L31 8.6V6.1h-2v4.4l-1.2-1.2-1.4 1.4 2.6 2.6v1.9l-.5-.2c-2.1-1-3.4-3.1-3.4-5.5.1-1.9.9-3.6 2.3-4.8zm-8 5.2V6.1h3.9c.2 0 .5 0 .7.1-.3.8-.6 1.6-.7 2.5L22 7.3l-1.4 1.4 2.9 2.9c.5 1.6 1.4 3.1 2.8 4.1h-1.1c-3.2 0-5.8-2.6-5.8-5.8zm-1.9 21.2c0-2.5 1.9-4.5 4.3-4.8.8 1.7 2.4 2.8 4.4 2.8.4 0 .8-.1 1.2-.2l-.5-1.9c-.2.1-.5.1-.7.1-1.6 0-2.9-1.3-2.9-2.9s1.3-2.9 2.9-2.9 2.9 1.3 2.9 2.9V33h-7.7c0-1.1.9-1.9 1.9-1.9v-1.9c-2.1 0-3.9 1.7-3.9 3.9h-1.5c-.3-.7-.4-1.3-.4-2zm-4.8 13.5c-1.6 0-2.9-1.3-2.9-2.9 0-1.6 1.3-2.9 2.9-2.9h1v2.1l-1.4-.9-1.1 1.6 2.5 1.6v1.4h-1zm31.7 2.9c0 5.8-4.8 10.6-10.6 10.6h-7.7c-5.8 0-10.6-4.8-10.6-10.6V35h28.9v12.5zm2.9-2.9h-1v-1.4l2.5-1.6-1.1-1.6-1.4.9v-2.1h1c1.6 0 2.9 1.3 2.9 2.9 0 1.6-1.3 2.9-2.9 2.9z"/><path class="st1" d="M.1 27.3H4v1.9H.1v-1.9zM5.9 27.3h5.8v1.9H5.9v-1.9zM.5 23.3l.4-1.9 11.3 2.3-.4 1.9L.5 23.3zM2.1 17.7l.7-1.8 3.6 1.5-.7 1.8-3.6-1.5zM7.4 19.9l.7-1.8 5.3 2.2-.7 1.8-5.3-2.2zM8.2 7.8l1.4-1.4 2.7 2.7-1.4 1.4-2.7-2.7zM12.3 11.9l1.4-1.4 4.1 4.1-1.4 1.4-4.1-4.1zM.5 33.1l11.3-2.3.4 1.9L.9 35l-.4-1.9zM4.7 12.4l1.1-1.6 9.6 6.4-1.1 1.6-9.6-6.4zM56 27.3h3.9v1.9H56v-1.9zM48.3 27.3h5.8v1.9h-5.8v-1.9zM47.8 23.7l11.3-2.3.4 1.9-11.3 2.3-.4-1.9zM53.7 17.4l3.6-1.5.7 1.8-3.6 1.5-.7-1.8zM46.5 20.3l5.3-2.2.7 1.8-5.3 2.2-.7-1.8zM47.7 9.2l2.7-2.7 1.4 1.4-2.7 2.7-1.4-1.4zM42.3 14.6l4.1-4.1 1.4 1.4-4.2 4.1-1.3-1.4zM47.8 32.7l.4-1.9 11.3 2.3-.4 1.9-11.3-2.3zM44.7 17.2l9.6-6.4 1.1 1.6-9.6 6.4-1.1-1.6z"/></svg>