<svg version="1.1" id="Layer_1" xmlns="http://www.w3.org/2000/svg" x="0" y="0" viewBox="0 0 60 60" style="enable-background:new 0 0 60 60" xml:space="preserve"><style>.st0{fill:#5f2ee5}</style><path class="st0" d="M16.9 22.7c2.1 0 3.8-1.7 3.8-3.8 0-.5-.4-.9-.9-.9s-.9.4-.9.9c0 1.1-.9 2-2 2s-2-.9-2-2c0-.5-.4-.9-.9-.9s-.9.4-.9.9c0 2.1 1.7 3.8 3.8 3.8z"/><path class="st0" d="M2.6 35.2h2.9c.8 1.5 1.8 3 2.9 4.2 2.3 2.6 3.6 5.9 3.6 9.4 0 1.9 1.5 3.4 3.4 3.4h3.5c1.9 0 3.4-1.5 3.4-3.4 0-.9.7-1.6 1.6-1.6h6.6c.9 0 1.6.7 1.6 1.6 0 1.9 1.5 3.4 3.4 3.4H39v2.6c0 2.1 1.7 3.9 3.9 3.9h12.4c2.1 0 3.9-1.7 3.9-3.9V42.5c0-2.1-1.6-3.8-3.7-3.9v-4.3c0-1.2-.4-2.5-1-3.5.2-1.1.3-2.2.3-3.3v-.7C57.7 26.4 60 24 60 21c0-.5-.4-.9-.9-.9s-.9.4-.9.9c0 2-1.5 3.7-3.5 4C53.3 14.2 43.3 5.9 31.2 5.9c-1.5 0-2.9.1-4.3.3-2.1-3.1-5.6-5-9.3-5-.5 0-.9.4-.9.9v.3l.3.8c.5 1.7.7 3.4.6 5.1-4.6 1.8-8.4 5-11.1 9.2l-1 1.6H2.6c-1.4 0-2.6 1.2-2.6 2.6v10.9c0 1.5 1.2 2.6 2.6 2.6zm54.9 7.3v12.4c0 1.2-.9 2.1-2.1 2.1H43c-1.2 0-2.1-.9-2.1-2.1V42.5c0-1.2.9-2.1 2.1-2.1h12.4c1.2 0 2.1.9 2.1 2.1zm-3.7-8.2v4.3h-9.2v-4.3c0-2.6 2.1-4.6 4.6-4.6s4.6 2 4.6 4.6zm-52-12.5c0-.5.4-.8.8-.8h3.3c.3 0 .6-.2.8-.4l1.3-2c2.5-4 6.3-7 10.7-8.7.3-.1.6-.4.6-.7.2-2 .1-4-.5-6 4.7.6 8.1 4.6 8.2 9.3 0 .5.4.9.9.9s.9-.4.9-.9c0-1.6-.3-3.1-1-4.5 1.1-.1 2.3-.2 3.4-.2 12.1 0 21.9 8.9 21.9 19.8 0 .6 0 1.1-.1 1.7-2.9-2.1-6.9-1.5-9 1.4-.8 1.1-1.2 2.4-1.2 3.8v4.3c-2.1.1-3.7 1.8-3.7 3.9v8h-3.5c-.9 0-1.6-.7-1.6-1.6 0-1.9-1.5-3.4-3.4-3.4H24c-1.9 0-3.4 1.5-3.4 3.4 0 .9-.7 1.6-1.6 1.6h-3.5c-.9 0-1.6-.7-1.6-1.6 0-3.9-1.4-7.7-4-10.6-1.3-1.5-2.3-3-3-4.5-.1-.3-.5-.5-.8-.5H2.6c-.5 0-.8-.4-.8-.8V21.8z"/><path d="M52.4 44.8c.5 0 .9-.4.9-.9s-.4-.9-.9-.9h-6.3c-.5 0-.9.4-.9.9s.4.9.9.9h1.8c.6 0 1.2.4 1.6.9h-3.4c-.5 0-.9.4-.9.9s.4.9.9.9h3.4c-.3.6-.9.9-1.6.9h-1.8c-.5 0-.9.4-.9.9 0 .2.1.5.3.6l4.5 4.3c.4.3.9.3 1.3 0 .3-.4.3-.9 0-1.3l-2.9-2.8c1.5-.2 2.7-1.2 3.1-2.6h1c.5 0 .9-.4.9-.9s-.4-.9-.9-.9h-1c-.1-.3-.2-.6-.4-.9h1.3z" style="fill:#009688"/></svg>